<?xml version="1.0" standalone="no"?>
<!DOCTYPE svg PUBLIC "-//W3C//DTD SVG 20010904//EN"
 "http://www.w3.org/TR/2001/REC-SVG-20010904/DTD/svg10.dtd">
<svg version="1.0" xmlns="http://www.w3.org/2000/svg"
 width="630.000000pt" height="630.000000pt" viewBox="0 0 630.000000 630.000000"
 preserveAspectRatio="xMidYMid meet">
<metadata>
Created by potrace 1.14, written by Peter Selinger 2001-2017
</metadata>
<g transform="translate(0.000000,630.000000) scale(0.100000,-0.100000)"
fill="#000000" stroke="none">
<path d="M5 6288 c-3 -7 -4 -1424 -3 -3148 l3 -3135 3145 0 3145 0 0 3145 0
3145 -3143 3 c-2509 2 -3144 0 -3147 -10z m2285 -937 l0 -258 -137 -7 c-179
-9 -235 -25 -290 -82 -84 -87 -103 -219 -103 -704 0 -393 -13 -516 -76 -694
-52 -149 -169 -300 -318 -408 -39 -28 -75 -55 -79 -58 -5 -4 28 -33 73 -64
201 -141 302 -287 358 -517 33 -135 42 -259 42 -591 0 -478 16 -609 83 -685
58 -66 127 -86 335 -99 l112 -7 0 -260 0 -260 -202 6 c-244 7 -361 28 -485 88
-138 66 -226 156 -298 304 -85 174 -105 331 -105 844 0 179 -5 367 -11 416
-24 194 -84 350 -166 433 -72 71 -208 122 -330 122 l-43 0 2 263 3 262 75 7
c272 25 415 197 459 553 6 50 11 243 11 430 1 187 5 386 10 442 37 406 214
658 523 743 110 30 179 37 380 39 l177 1 0 -259z m2140 244 c161 -24 278 -71
382 -152 156 -123 247 -336 268 -632 5 -75 10 -280 10 -456 0 -334 7 -431 40
-562 64 -250 200 -373 435 -392 l70 -6 3 -254 c2 -197 -1 -256 -10 -263 -7 -4
-33 -8 -58 -8 -60 0 -167 -30 -222 -62 -108 -64 -192 -199 -230 -369 -18 -84
-21 -145 -28 -559 -9 -488 -15 -568 -61 -716 -90 -290 -299 -452 -639 -494
-46 -5 -153 -10 -237 -10 l-153 0 0 258 0 258 153 11 c180 14 216 23 267 69
91 82 100 145 110 709 7 405 10 460 30 549 60 279 153 410 434 608 17 13 14
16 -35 49 -171 114 -293 264 -356 436 -58 161 -64 222 -73 728 -9 503 -13 543
-63 627 -47 81 -133 111 -349 124 l-118 6 0 259 0 259 168 0 c95 0 208 -6 262
-15z"/>
</g>
</svg>
